<svg width="1200" height="330" viewBox="0 0 1200 330" fill="none" xmlns="http://www.w3.org/2000/svg">
<defs>
<linearGradient id="bg" x1="0" y1="0" x2="1200" y2="330"><stop stop-color="#090D13"/><stop offset="0.58" stop-color="#0C121A"/><stop offset="1" stop-color="#090D13"/></linearGradient>
<linearGradient id="accent" x1="820" y1="54" x2="1068" y2="276"><stop stop-color="#A78BFA"/><stop offset="0.5" stop-color="#8B5CF6"/><stop offset="1" stop-color="#22D3EE"/></linearGradient>
<radialGradient id="glow" cx="0" cy="0" r="1" gradientTransform="translate(960 154) rotate(90) scale(155 225)"><stop stop-color="#8B5CF6" stop-opacity="0.16"/><stop offset="1" stop-color="#8B5CF6" stop-opacity="0"/></radialGradient>
<pattern id="grid" width="30" height="30" patternUnits="userSpaceOnUse"><path d="M30 0H0V30" stroke="#FFFFFF" stroke-opacity="0.025"/></pattern>
</defs>
<rect x="1" y="1" width="1198" height="328" rx="18" fill="url(#bg)"/>
<rect x="1" y="1" width="1198" height="328" rx="18" fill="url(#grid)"/>
<rect x="1" y="1" width="1198" height="328" rx="18" stroke="#FFFFFF" stroke-opacity="0.08"/>
<circle cx="960" cy="154" r="210" fill="url(#glow)"/>
<text x="46" y="39" fill="#677487" font-family="Inter,Segoe UI,sans-serif" font-size="15" font-weight="600">Mrun25 / profile</text>
<circle cx="1098" cy="34" r="4" fill="#2DD4BF"/><text x="1111" y="39" fill="#677487" font-family="Inter,Segoe UI,sans-serif" font-size="12">building</text>
<text x="47" y="109" fill="#F6F8FB" font-family="Inter,Segoe UI,sans-serif" font-size="58" font-weight="800" letter-spacing="-2">Mrun25</text>
<text x="49" y="141" fill="#D7DFEA" font-family="Inter,Segoe UI,sans-serif" font-size="18" font-weight="700">model adaptation · safety systems · agentic AI</text>
<text x="49" y="177" fill="#9AA7B6" font-family="Inter,Segoe UI,sans-serif" font-size="14">I build AI systems where models can reason, while the surrounding</text>
<text x="49" y="199" fill="#9AA7B6" font-family="Inter,Segoe UI,sans-serif" font-size="14">system still knows when to verify, constrain, or correct them.</text>
<g transform="translate(49 228)">
<rect width="82" height="26" rx="13" fill="#131A23" stroke="#FFFFFF" stroke-opacity="0.07"/><text x="41" y="17" text-anchor="middle" fill="#C7D0DD" font-family="Inter,Segoe UI,sans-serif" font-size="11">fine-tuning</text>
<rect x="92" width="70" height="26" rx="13" fill="#131A23" stroke="#FFFFFF" stroke-opacity="0.07"/><text x="127" y="17" text-anchor="middle" fill="#C7D0DD" font-family="Inter,Segoe UI,sans-serif" font-size="11">safety</text>
<rect x="172" width="72" height="26" rx="13" fill="#131A23" stroke="#FFFFFF" stroke-opacity="0.07"/><text x="208" y="17" text-anchor="middle" fill="#C7D0DD" font-family="Inter,Segoe UI,sans-serif" font-size="11">agents</text>
<rect x="254" width="60" height="26" rx="13" fill="#131A23" stroke="#FFFFFF" stroke-opacity="0.07"/><text x="284" y="17" text-anchor="middle" fill="#C7D0DD" font-family="Inter,Segoe UI,sans-serif" font-size="11">data</text>
<rect x="324" width="72" height="26" rx="13" fill="#131A23" stroke="#FFFFFF" stroke-opacity="0.07"/><text x="360" y="17" text-anchor="middle" fill="#C7D0DD" font-family="Inter,Segoe UI,sans-serif" font-size="11">deploy</text>
</g>
<g transform="translate(49 289)"><circle cx="4" cy="-2" r="4" fill="#A78BFA"/><text x="14" y="2" fill="#69778A" font-family="Inter,Segoe UI,sans-serif" font-size="11">Pune, India</text><circle cx="91" cy="-2" r="4" fill="#22D3EE"/><text x="101" y="2" fill="#69778A" font-family="Inter,Segoe UI,sans-serif" font-size="11">github.com/Mrun25</text></g>
<g transform="translate(760 48)">
<path d="M175 118L95 66M175 118L185 28M175 118L291 86M175 118L244 187M175 118L126 205M175 118L62 143" stroke="#FFFFFF" stroke-opacity="0.08"/>
<path d="M95 66L291 86M185 28L244 187M62 143L244 187" stroke="url(#accent)" stroke-opacity="0.45"/>
<circle cx="95" cy="66" r="8" fill="#0C121A" stroke="#A78BFA" stroke-width="2"/><circle cx="185" cy="28" r="7" fill="#0C121A" stroke="#8B5CF6" stroke-width="2"/><circle cx="291" cy="86" r="8" fill="#0C121A" stroke="#22D3EE" stroke-width="2"/><circle cx="244" cy="187" r="8" fill="#0C121A" stroke="#2DD4BF" stroke-width="2"/><circle cx="126" cy="205" r="7" fill="#0C121A" stroke="#A78BFA" stroke-width="2"/><circle cx="62" cy="143" r="7" fill="#0C121A" stroke="#D8DEE9" stroke-width="2"/>
<circle cx="175" cy="118" r="39" fill="#101722" stroke="url(#accent)" stroke-width="1.5"/><text x="175" y="114" text-anchor="middle" fill="#F5F7FA" font-family="Inter,Segoe UI,sans-serif" font-size="17" font-weight="800">M</text><text x="175" y="133" text-anchor="middle" fill="#8492A6" font-family="Inter,Segoe UI,sans-serif" font-size="9" font-weight="600">Mrun25</text>
<text x="64" y="49" fill="#7D8A9C" font-family="Inter,Segoe UI,sans-serif" font-size="9">FINE-TUNE</text><text x="168" y="13" fill="#7D8A9C" font-family="Inter,Segoe UI,sans-serif" font-size="9">CRITIC</text><text x="299" y="89" fill="#7D8A9C" font-family="Inter,Segoe UI,sans-serif" font-size="9">SAFETY</text><text x="247" y="207" fill="#7D8A9C" font-family="Inter,Segoe UI,sans-serif" font-size="9">DEPLOY</text><text x="92" y="225" fill="#7D8A9C" font-family="Inter,Segoe UI,sans-serif" font-size="9">AGENTS</text><text x="17" y="146" fill="#7D8A9C" font-family="Inter,Segoe UI,sans-serif" font-size="9">DATA</text>
</g>
</svg>